{
	"asset":{
		"generator":"Khronos glTF Blender I/O v3.5.30",
		"version":"2.0"
	},
	"extensionsUsed":[
		"KHR_materials_specular",
		"KHR_materials_ior",
		"KHR_materials_clearcoat"
	],
	"scene":0,
	"scenes":[
		{
			"name":"Scene",
			"nodes":[
				0,
				1,
				2,
				3,
				4
			]
		}
	],
	"nodes":[
		{
			"mesh":0,
			"name":"Bubblegum Pink"
		},
		{
			"mesh":1,
			"name":"Plane",
			"rotation":[
				-0.07460466027259827,
				-0.1401410549879074,
				-0.12462387979030609,
				0.979420006275177
			],
			"scale":[
				3.783656120300293,
				3.783655881881714,
				3.783655881881714
			],
			"translation":[
				1.718491554260254,
				6.967549800872803,
				3.6880226135253906
			]
		},
		{
			"mesh":2,
			"name":"Plane.001",
			"rotation":[
				-0.46597278118133545,
				-0.4920777678489685,
				0.5283003449440002,
				0.5114954113960266
			],
			"scale":[
				3.783655881881714,
				3.783656120300293,
				3.7836556434631348
			],
			"translation":[
				-0.7234057188034058,
				0.7989709377288818,
				-2.318970203399658
			]
		},
		{
			"mesh":3,
			"name":"Plane.002",
			"rotation":[
				-0.3464411199092865,
				-0.37546074390411377,
				0.6133599877357483,
				0.6023266911506653
			],
			"scale":[
				3.783655881881714,
				3.783656120300293,
				3.783655881881714
			],
			"translation":[
				2.8860583305358887,
				0.34552687406539917,
				2.9009695053100586
			]
		},
		{
			"mesh":4,
			"name":"Plane.003",
			"rotation":[
				-0.08052540570497513,
				0.0014854203909635544,
				0.0009487924398854375,
				0.9967510104179382
			],
			"scale":[
				3.1522836685180664,
				3.1522834300994873,
				3.1522839069366455
			],
			"translation":[
				-0.2874753475189209,
				-1.1376583576202393,
				-0.5468556880950928
			]
		}
	],
	"materials":[
		{
			"doubleSided":true,
			"extensions":{
				"KHR_materials_specular":{
					"specularColorFactor":[
						0.5012196332747837,
						0.5012196332747837,
						0.5012196332747837
					]
				},
				"KHR_materials_ior":{
					"ior":1.4500000476837158
				}
			},
			"name":"Bubblegum Pink Enamel",
			"pbrMetallicRoughness":{
				"baseColorFactor":[
					1,
					0.11826974153518677,
					0.3348435163497925,
					1
				],
				"metallicFactor":0.3283582329750061,
				"roughnessFactor":0.3071046769618988
			}
		},
		{
			"doubleSided":true,
			"extensions":{
				"KHR_materials_clearcoat":{
					"clearcoatFactor":0.5772727131843567,
					"clearcoatRoughnessFactor":0
				},
				"KHR_materials_specular":{
					"specularColorFactor":[
						2.371357614441398,
						2.371357614441398,
						2.371357614441398
					]
				},
				"KHR_materials_ior":{
					"ior":1.4500000476837158
				}
			},
			"name":"Logo",
			"pbrMetallicRoughness":{
				"baseColorFactor":[
					0.3505590260028839,
					0.3505590260028839,
					0.3505590260028839,
					1
				],
				"roughnessFactor":0.12223070114850998
			}
		},
		{
			"doubleSided":true,
			"name":"Material.001",
			"pbrMetallicRoughness":{
				"baseColorFactor":[
					0.800000011920929,
					0.800000011920929,
					0.800000011920929,
					0.672877848148346
				],
				"metallicFactor":0,
				"roughnessFactor":0.2960662245750427
			}
		},
		{
			"doubleSided":true,
			"name":"Material.002",
			"pbrMetallicRoughness":{
				"baseColorFactor":[
					0.800000011920929,
					0.800000011920929,
					0.800000011920929,
					0.672877848148346
				],
				"metallicFactor":0,
				"roughnessFactor":0.2960662245750427
			}
		},
		{
			"doubleSided":true,
			"name":"Material.003",
			"pbrMetallicRoughness":{
				"baseColorFactor":[
					0.800000011920929,
					0.800000011920929,
					0.800000011920929,
					0.672877848148346
				],
				"metallicFactor":0,
				"roughnessFactor":0.2960662245750427
			}
		}
	],
	"meshes":[
		{
			"name":"Circle.004",
			"primitives":[
				{
					"attributes":{
						"POSITION":0,
						"TEXCOORD_0":1,
						"NORMAL":2
					},
					"indices":3,
					"material":0
				},
				{
					"attributes":{
						"POSITION":4,
						"TEXCOORD_0":5,
						"NORMAL":6
					},
					"indices":7,
					"material":1
				}
			]
		},
		{
			"name":"Plane",
			"primitives":[
				{
					"attributes":{
						"POSITION":8,
						"TEXCOORD_0":9,
						"NORMAL":10
					},
					"indices":11,
					"material":2
				}
			]
		},
		{
			"name":"Plane.001",
			"primitives":[
				{
					"attributes":{
						"POSITION":12,
						"TEXCOORD_0":13,
						"NORMAL":14
					},
					"indices":11,
					"material":3
				}
			]
		},
		{
			"name":"Plane.002",
			"primitives":[
				{
					"attributes":{
						"POSITION":15,
						"TEXCOORD_0":16,
						"NORMAL":17
					},
					"indices":11,
					"material":4
				}
			]
		},
		{
			"name":"Plane.003",
			"primitives":[
				{
					"attributes":{
						"POSITION":18,
						"TEXCOORD_0":19,
						"NORMAL":20
					},
					"indices":11
				}
			]
		}
	],
	"accessors":[
		{
			"bufferView":0,
			"componentType":5126,
			"count":6958,
			"max":[
				1.3430049419403076,
				0.7412339448928833,
				1.0954229831695557
			],
			"min":[
				-1.0010098218917847,
				-0.6569615602493286,
				-1.0951358079910278
			],
			"type":"VEC3"
		},
		{
			"bufferView":1,
			"componentType":5126,
			"count":6958,
			"type":"VEC2"
		},
		{
			"bufferView":2,
			"componentType":5126,
			"count":6958,
			"type":"VEC3"
		},
		{
			"bufferView":3,
			"componentType":5123,
			"count":39744,
			"type":"SCALAR"
		},
		{
			"bufferView":4,
			"componentType":5126,
			"count":7257,
			"max":[
				1.2738181352615356,
				0.6981514692306519,
				1.0812760591506958
			],
			"min":[
				-0.8837540745735168,
				-0.6520508527755737,
				-1.0812879800796509
			],
			"type":"VEC3"
		},
		{
			"bufferView":5,
			"componentType":5126,
			"count":7257,
			"type":"VEC2"
		},
		{
			"bufferView":6,
			"componentType":5126,
			"count":7257,
			"type":"VEC3"
		},
		{
			"bufferView":7,
			"componentType":5123,
			"count":41592,
			"type":"SCALAR"
		},
		{
			"bufferView":8,
			"componentType":5126,
			"count":4,
			"max":[
				1,
				0,
				1
			],
			"min":[
				-1,
				0,
				-1
			],
			"type":"VEC3"
		},
		{
			"bufferView":9,
			"componentType":5126,
			"count":4,
			"type":"VEC2"
		},
		{
			"bufferView":10,
			"componentType":5126,
			"count":4,
			"type":"VEC3"
		},
		{
			"bufferView":11,
			"componentType":5123,
			"count":6,
			"type":"SCALAR"
		},
		{
			"bufferView":12,
			"componentType":5126,
			"count":4,
			"max":[
				1,
				0,
				1
			],
			"min":[
				-1,
				0,
				-1
			],
			"type":"VEC3"
		},
		{
			"bufferView":13,
			"componentType":5126,
			"count":4,
			"type":"VEC2"
		},
		{
			"bufferView":14,
			"componentType":5126,
			"count":4,
			"type":"VEC3"
		},
		{
			"bufferView":15,
			"componentType":5126,
			"count":4,
			"max":[
				1,
				0,
				1
			],
			"min":[
				-1,
				0,
				-1
			],
			"type":"VEC3"
		},
		{
			"bufferView":16,
			"componentType":5126,
			"count":4,
			"type":"VEC2"
		},
		{
			"bufferView":17,
			"componentType":5126,
			"count":4,
			"type":"VEC3"
		},
		{
			"bufferView":18,
			"componentType":5126,
			"count":4,
			"max":[
				1,
				0,
				1
			],
			"min":[
				-1,
				0,
				-1
			],
			"type":"VEC3"
		},
		{
			"bufferView":19,
			"componentType":5126,
			"count":4,
			"type":"VEC2"
		},
		{
			"bufferView":20,
			"componentType":5126,
			"count":4,
			"type":"VEC3"
		}
	],
	"bufferViews":[
		{
			"buffer":0,
			"byteLength":83496,
			"byteOffset":0,
			"target":34962
		},
		{
			"buffer":0,
			"byteLength":55664,
			"byteOffset":83496,
			"target":34962
		},
		{
			"buffer":0,
			"byteLength":83496,
			"byteOffset":139160,
			"target":34962
		},
		{
			"buffer":0,
			"byteLength":79488,
			"byteOffset":222656,
			"target":34963
		},
		{
			"buffer":0,
			"byteLength":87084,
			"byteOffset":302144,
			"target":34962
		},
		{
			"buffer":0,
			"byteLength":58056,
			"byteOffset":389228,
			"target":34962
		},
		{
			"buffer":0,
			"byteLength":87084,
			"byteOffset":447284,
			"target":34962
		},
		{
			"buffer":0,
			"byteLength":83184,
			"byteOffset":534368,
			"target":34963
		},
		{
			"buffer":0,
			"byteLength":48,
			"byteOffset":617552,
			"target":34962
		},
		{
			"buffer":0,
			"byteLength":32,
			"byteOffset":617600,
			"target":34962
		},
		{
			"buffer":0,
			"byteLength":48,
			"byteOffset":617632,
			"target":34962
		},
		{
			"buffer":0,
			"byteLength":12,
			"byteOffset":617680,
			"target":34963
		},
		{
			"buffer":0,
			"byteLength":48,
			"byteOffset":617692,
			"target":34962
		},
		{
			"buffer":0,
			"byteLength":32,
			"byteOffset":617740,
			"target":34962
		},
		{
			"buffer":0,
			"byteLength":48,
			"byteOffset":617772,
			"target":34962
		},
		{
			"buffer":0,
			"byteLength":48,
			"byteOffset":617820,
			"target":34962
		},
		{
			"buffer":0,
			"byteLength":32,
			"byteOffset":617868,
			"target":34962
		},
		{
			"buffer":0,
			"byteLength":48,
			"byteOffset":617900,
			"target":34962
		},
		{
			"buffer":0,
			"byteLength":48,
			"byteOffset":617948,
			"target":34962
		},
		{
			"buffer":0,
			"byteLength":32,
			"byteOffset":617996,
			"target":34962
		},
		{
			"buffer":0,
			"byteLength":48,
			"byteOffset":618028,
			"target":34962
		}
	],
	"buffers":[
		{
			"byteLength":618076,
			"uri":"data:application/octet-stream;base64,"
		}
	]
}
